<svg xmlns="http://www.w3.org/2000/svg" id="Camada_2" viewBox="0 0 364.28 63.84"><defs><style>.cls-1{fill:#ffc107;}</style></defs><g id="Camada_1-2"><path class="cls-1" d="m66.44,24.12c-.44-1.35-1.63-2.31-3.05-2.43l-19.23-1.75-7.6-17.79C36,.84,34.73,0,33.31,0s-2.7.84-3.26,2.15l-7.6,17.79-19.23,1.75c-1.41.13-2.61,1.09-3.04,2.43-.44,1.35-.03,2.83,1.04,3.76l14.53,12.75-4.29,18.88c-.31,1.39.23,2.82,1.38,3.66.62.45,1.34.67,2.07.67.63,0,1.25-.17,1.81-.51l16.58-9.91,16.58,9.91c1.21.73,2.74.66,3.89-.17,1.15-.84,1.69-2.27,1.38-3.66l-4.29-18.88,14.53-12.74c1.07-.94,1.48-2.41,1.04-3.76Z"></path><path class="cls-1" d="m140.86,24.12c-.44-1.35-1.63-2.31-3.05-2.43l-19.23-1.75-7.6-17.79c-.56-1.3-1.84-2.15-3.26-2.15s-2.7.84-3.26,2.15l-7.6,17.79-19.23,1.75c-1.41.13-2.61,1.09-3.04,2.43-.44,1.35-.03,2.83,1.04,3.76l14.53,12.75-4.29,18.88c-.31,1.39.23,2.82,1.38,3.66.62.45,1.34.67,2.07.67.63,0,1.25-.17,1.81-.51l16.58-9.91,16.58,9.91c1.21.73,2.74.66,3.89-.17,1.15-.84,1.69-2.27,1.38-3.66l-4.29-18.88,14.53-12.74c1.07-.94,1.48-2.41,1.04-3.76Z"></path><path class="cls-1" d="m215.28,24.12c-.44-1.35-1.63-2.31-3.05-2.43l-19.23-1.75-7.6-17.79C184.84.84,183.56,0,182.14,0s-2.7.84-3.26,2.15l-7.6,17.79-19.23,1.75c-1.41.13-2.61,1.09-3.04,2.43-.44,1.35-.03,2.83,1.04,3.76l14.53,12.75-4.29,18.88c-.31,1.39.23,2.82,1.38,3.66.62.45,1.34.67,2.07.67.63,0,1.25-.17,1.81-.51l16.58-9.91,16.58,9.91c1.21.73,2.74.66,3.89-.17,1.15-.84,1.69-2.27,1.38-3.66l-4.29-18.88,14.53-12.74c1.07-.94,1.48-2.41,1.04-3.76Z"></path><path class="cls-1" d="m289.69,24.12c-.44-1.35-1.63-2.31-3.05-2.43l-19.23-1.75-7.6-17.79C259.26.84,257.98,0,256.56,0s-2.7.84-3.26,2.15l-7.6,17.79-19.23,1.75c-1.41.13-2.61,1.09-3.04,2.43-.44,1.35-.03,2.83,1.04,3.76l14.53,12.75-4.29,18.88c-.31,1.39.23,2.82,1.38,3.66.62.45,1.34.67,2.07.67.63,0,1.25-.17,1.81-.51l16.58-9.91,16.58,9.91c1.21.73,2.74.66,3.89-.17,1.15-.84,1.69-2.27,1.38-3.66l-4.29-18.88,14.53-12.74c1.07-.94,1.48-2.41,1.04-3.76Z"></path><path class="cls-1" d="m364.11,24.12c-.44-1.35-1.63-2.31-3.05-2.43l-19.23-1.75-7.6-17.79C333.67.84,332.4,0,330.98,0s-2.7.84-3.26,2.15l-7.6,17.79-19.23,1.75c-1.41.13-2.61,1.09-3.04,2.43-.44,1.35-.03,2.83,1.04,3.76l14.53,12.75-4.29,18.88c-.31,1.39.23,2.82,1.38,3.66.62.45,1.34.67,2.07.67.63,0,1.25-.17,1.81-.51l16.58-9.91,16.58,9.91c1.21.73,2.74.66,3.89-.17,1.15-.84,1.69-2.27,1.38-3.66l-4.29-18.88,14.53-12.74c1.07-.94,1.48-2.41,1.04-3.76Z"></path></g></svg>