<svg id="visual" viewBox="0 0 900 600" width="900" height="600" xmlns="http://www.w3.org/2000/svg" xmlns:xlink="http://www.w3.org/1999/xlink" version="1.1"><g stroke-width="1" stroke-linejoin="bevel"><path d="M501 296L439 231L380 327Z" fill="#cdacd6" stroke="#cdacd6"></path><path d="M380 327L419 366L501 296Z" fill="#c5a2c8" stroke="#c5a2c8"></path><path d="M419 366L525 390L501 296Z" fill="#cdacd6" stroke="#cdacd6"></path><path d="M501 296L461 162L439 231Z" fill="#b993b5" stroke="#b993b5"></path><path d="M305 190L279 288L380 327Z" fill="#caa9d1" stroke="#caa9d1"></path><path d="M305 190L380 327L439 231Z" fill="#c29ec3" stroke="#c29ec3"></path><path d="M293 434L373 469L419 366Z" fill="#cdacd6" stroke="#cdacd6"></path><path d="M383 103L305 190L439 231Z" fill="#c7a5cd" stroke="#c7a5cd"></path><path d="M525 390L609 270L501 296Z" fill="#c29ec3" stroke="#c29ec3"></path><path d="M501 296L613 195L461 162Z" fill="#bf9abe" stroke="#bf9abe"></path><path d="M293 434L419 366L380 327Z" fill="#bc97b9" stroke="#bc97b9"></path><path d="M419 366L486 487L525 390Z" fill="#caa9d1" stroke="#caa9d1"></path><path d="M567 91L472 114L461 162Z" fill="#c29ec3" stroke="#c29ec3"></path><path d="M461 162L383 103L439 231Z" fill="#caa9d1" stroke="#caa9d1"></path><path d="M373 469L486 487L419 366Z" fill="#b690b0" stroke="#b690b0"></path><path d="M525 390L630 425L609 270Z" fill="#b690b0" stroke="#b690b0"></path><path d="M279 288L293 434L380 327Z" fill="#b690b0" stroke="#b690b0"></path><path d="M472 114L383 103L461 162Z" fill="#b38cab" stroke="#b38cab"></path><path d="M609 270L613 195L501 296Z" fill="#b993b5" stroke="#b993b5"></path><path d="M293 434L317 494L373 469Z" fill="#c5a2c8" stroke="#c5a2c8"></path><path d="M373 469L417 600L486 487Z" fill="#c7a5cd" stroke="#c7a5cd"></path><path d="M602 480L630 425L525 390Z" fill="#cdacd6" stroke="#cdacd6"></path><path d="M609 270L712 160L613 195Z" fill="#bc97b9" stroke="#bc97b9"></path><path d="M305 190L204 274L279 288Z" fill="#b690b0" stroke="#b690b0"></path><path d="M279 288L235 424L293 434Z" fill="#caa9d1" stroke="#caa9d1"></path><path d="M293 434L206 470L317 494Z" fill="#b690b0" stroke="#b690b0"></path><path d="M201 173L204 274L305 190Z" fill="#c5a2c8" stroke="#c5a2c8"></path><path d="M383 103L292 110L305 190Z" fill="#c29ec3" stroke="#c29ec3"></path><path d="M204 274L235 424L279 288Z" fill="#cdacd6" stroke="#cdacd6"></path><path d="M613 195L567 91L461 162Z" fill="#bc97b9" stroke="#bc97b9"></path><path d="M472 114L378 0L383 103Z" fill="#caa9d1" stroke="#caa9d1"></path><path d="M486 487L602 480L525 390Z" fill="#bc97b9" stroke="#bc97b9"></path><path d="M761 295L694 328L739 439Z" fill="#bf9abe" stroke="#bf9abe"></path><path d="M630 425L694 328L609 270Z" fill="#b993b5" stroke="#b993b5"></path><path d="M613 195L679 66L567 91Z" fill="#c7a5cd" stroke="#c7a5cd"></path><path d="M218 138L201 173L305 190Z" fill="#bf9abe" stroke="#bf9abe"></path><path d="M292 110L218 138L305 190Z" fill="#c5a2c8" stroke="#c5a2c8"></path><path d="M130 433L206 470L235 424Z" fill="#b690b0" stroke="#b690b0"></path><path d="M235 424L206 470L293 434Z" fill="#bc97b9" stroke="#bc97b9"></path><path d="M130 433L235 424L204 274Z" fill="#b690b0" stroke="#b690b0"></path><path d="M383 103L336 0L292 110Z" fill="#b38cab" stroke="#b38cab"></path><path d="M292 110L208 0L218 138Z" fill="#c5a2c8" stroke="#c5a2c8"></path><path d="M523 0L378 0L472 114Z" fill="#c7a5cd" stroke="#c7a5cd"></path><path d="M317 494L417 600L373 469Z" fill="#b690b0" stroke="#b690b0"></path><path d="M486 487L522 600L602 480Z" fill="#cfb0db" stroke="#cfb0db"></path><path d="M293 600L417 600L317 494Z" fill="#bf9abe" stroke="#bf9abe"></path><path d="M694 328L712 160L609 270Z" fill="#b690b0" stroke="#b690b0"></path><path d="M567 91L523 0L472 114Z" fill="#c29ec3" stroke="#c29ec3"></path><path d="M609 0L523 0L567 91Z" fill="#c7a5cd" stroke="#c7a5cd"></path><path d="M378 0L336 0L383 103Z" fill="#c5a2c8" stroke="#c5a2c8"></path><path d="M417 600L522 600L486 487Z" fill="#c5a2c8" stroke="#c5a2c8"></path><path d="M739 439L694 328L630 425Z" fill="#c5a2c8" stroke="#c5a2c8"></path><path d="M694 328L761 295L712 160Z" fill="#b993b5" stroke="#b993b5"></path><path d="M739 439L630 425L738 511Z" fill="#cfb0db" stroke="#cfb0db"></path><path d="M87 219L105 306L204 274Z" fill="#b690b0" stroke="#b690b0"></path><path d="M87 219L204 274L201 173Z" fill="#bc97b9" stroke="#bc97b9"></path><path d="M684 0L679 66L813 84Z" fill="#c29ec3" stroke="#c29ec3"></path><path d="M712 160L679 66L613 195Z" fill="#c5a2c8" stroke="#c5a2c8"></path><path d="M738 511L630 425L602 480Z" fill="#c7a5cd" stroke="#c7a5cd"></path><path d="M105 306L130 433L204 274Z" fill="#cfb0db" stroke="#cfb0db"></path><path d="M206 470L293 600L317 494Z" fill="#b38cab" stroke="#b38cab"></path><path d="M163 600L293 600L206 470Z" fill="#b38cab" stroke="#b38cab"></path><path d="M679 66L609 0L567 91Z" fill="#b38cab" stroke="#b38cab"></path><path d="M80 124L201 173L218 138Z" fill="#cfb0db" stroke="#cfb0db"></path><path d="M80 124L87 219L201 173Z" fill="#c7a5cd" stroke="#c7a5cd"></path><path d="M0 372L107 496L130 433Z" fill="#cdacd6" stroke="#cdacd6"></path><path d="M522 600L630 600L602 480Z" fill="#b38cab" stroke="#b38cab"></path><path d="M662 600L738 511L602 480Z" fill="#b993b5" stroke="#b993b5"></path><path d="M900 337L827 215L761 295Z" fill="#cdacd6" stroke="#cdacd6"></path><path d="M336 0L208 0L292 110Z" fill="#c29ec3" stroke="#c29ec3"></path><path d="M630 600L662 600L602 480Z" fill="#caa9d1" stroke="#caa9d1"></path><path d="M813 84L679 66L712 160Z" fill="#cdacd6" stroke="#cdacd6"></path><path d="M679 66L684 0L609 0Z" fill="#caa9d1" stroke="#caa9d1"></path><path d="M0 372L130 433L105 306Z" fill="#cfb0db" stroke="#cfb0db"></path><path d="M130 433L107 496L206 470Z" fill="#c5a2c8" stroke="#c5a2c8"></path><path d="M208 0L80 124L218 138Z" fill="#cdacd6" stroke="#cdacd6"></path><path d="M87 219L0 265L105 306Z" fill="#caa9d1" stroke="#caa9d1"></path><path d="M831 390L761 295L739 439Z" fill="#bf9abe" stroke="#bf9abe"></path><path d="M761 295L827 215L712 160Z" fill="#b38cab" stroke="#b38cab"></path><path d="M662 600L764 526L738 511Z" fill="#b690b0" stroke="#b690b0"></path><path d="M738 511L764 526L739 439Z" fill="#b690b0" stroke="#b690b0"></path><path d="M764 526L831 390L739 439Z" fill="#bf9abe" stroke="#bf9abe"></path><path d="M107 496L163 600L206 470Z" fill="#b993b5" stroke="#b993b5"></path><path d="M827 215L813 84L712 160Z" fill="#bf9abe" stroke="#bf9abe"></path><path d="M0 178L0 265L87 219Z" fill="#b38cab" stroke="#b38cab"></path><path d="M0 265L0 372L105 306Z" fill="#cfb0db" stroke="#cfb0db"></path><path d="M107 496L92 600L163 600Z" fill="#bf9abe" stroke="#bf9abe"></path><path d="M80 124L0 178L87 219Z" fill="#c5a2c8" stroke="#c5a2c8"></path><path d="M0 106L0 178L80 124Z" fill="#c7a5cd" stroke="#c7a5cd"></path><path d="M0 517L92 600L107 496Z" fill="#cfb0db" stroke="#cfb0db"></path><path d="M831 390L900 337L761 295Z" fill="#c5a2c8" stroke="#c5a2c8"></path><path d="M827 215L900 172L813 84Z" fill="#cdacd6" stroke="#cdacd6"></path><path d="M900 372L900 337L831 390Z" fill="#cfb0db" stroke="#cfb0db"></path><path d="M900 513L900 372L831 390Z" fill="#b690b0" stroke="#b690b0"></path><path d="M61 0L0 106L80 124Z" fill="#cfb0db" stroke="#cfb0db"></path><path d="M208 0L61 0L80 124Z" fill="#c7a5cd" stroke="#c7a5cd"></path><path d="M900 337L900 172L827 215Z" fill="#c5a2c8" stroke="#c5a2c8"></path><path d="M900 90L821 0L813 84Z" fill="#c7a5cd" stroke="#c7a5cd"></path><path d="M813 84L821 0L684 0Z" fill="#c7a5cd" stroke="#c7a5cd"></path><path d="M0 372L0 517L107 496Z" fill="#b690b0" stroke="#b690b0"></path><path d="M662 600L834 600L764 526Z" fill="#b690b0" stroke="#b690b0"></path><path d="M764 526L900 513L831 390Z" fill="#bc97b9" stroke="#bc97b9"></path><path d="M900 172L900 90L813 84Z" fill="#bc97b9" stroke="#bc97b9"></path><path d="M834 600L900 513L764 526Z" fill="#b38cab" stroke="#b38cab"></path><path d="M61 0L0 0L0 106Z" fill="#bf9abe" stroke="#bf9abe"></path><path d="M0 517L0 600L92 600Z" fill="#c29ec3" stroke="#c29ec3"></path><path d="M900 90L900 0L821 0Z" fill="#bf9abe" stroke="#bf9abe"></path><path d="M834 600L900 600L900 513Z" fill="#c5a2c8" stroke="#c5a2c8"></path></g></svg>