<?xml version="1.0" encoding="UTF-8" standalone="no"?>
<svg
   xmlns:dc="http://purl.org/dc/elements/1.1/"
   xmlns:cc="http://creativecommons.org/ns#"
   xmlns:rdf="http://www.w3.org/1999/02/22-rdf-syntax-ns#"
   xmlns:svg="http://www.w3.org/2000/svg"
   xmlns="http://www.w3.org/2000/svg"
   version="1.1"
   id="svg6648"
   viewBox="0 0 882.32147 766.91128"
   height="216.43941mm"
   width="249.01073mm">
  <defs
     id="defs6650" />
  <metadata
     id="metadata6653">
    <rdf:RDF>
      <cc:Work
         rdf:about="">
        <dc:format>image/svg+xml</dc:format>
        <dc:type
           rdf:resource="http://purl.org/dc/dcmitype/StillImage" />
        <dc:title></dc:title>
      </cc:Work>
    </rdf:RDF>
  </metadata>
  <g
     transform="translate(304.11297,-313.30849)"
     id="layer1">
    <g
       id="g7227">
      <path
         style="fill:#6674ae;fill-opacity:1;fill-rule:evenodd;stroke:none;stroke-width:1px;stroke-linecap:butt;stroke-linejoin:miter;stroke-opacity:1"
         d="m 231.56645,472.57553 -52.23303,38.30422 -1.74111,97.50167 -10.4466,174.11011 10.4466,113.17157 130.58259,57.45634 52.23303,10.44661 100.98387,-10.44661 104.46607,-20.89321 -1.7411,-22.63432 8.7055,-144.51139 -15.66991,-205.44993 -43.52753,-71.38515 -43.52753,-43.52753 -151.47579,-27.85762 -31.33982,40.04533 z"
         id="path7209" />
      <path
         style="fill:#b8bac3;fill-opacity:1;fill-rule:evenodd;stroke:none;stroke-width:1px;stroke-linecap:butt;stroke-linejoin:miter;stroke-opacity:1"
         d="m 308.1749,980.97706 -15.66991,71.38514 41.78643,26.1165 40.04532,-1.7411 20.89322,3.4822 0,-104.46604 -55.71524,0 z"
         id="path7211" />
      <path
         style="fill:#727689;fill-opacity:1;fill-rule:evenodd;stroke:none;stroke-width:1px;stroke-linecap:butt;stroke-linejoin:miter;stroke-opacity:1"
         d="m -205.44993,543.96068 -71.38515,125.35928 6.96441,217.63764 19.15211,85.31395 111.43047,31.33985 85.313955,-8.70553 66.161843,6.96443 -43.527528,-74.86738 -5.223304,-85.31395 12.187708,-53.97414 52.233034,8.70551 59.197438,-13.92881 94.019464,-57.45634 59.19744,-36.56312 -34.82203,-57.45634 -27.85762,8.70551 -57.45633,24.37541 -60.938542,12.18771 19.152113,-31.33982 15.66991,-27.85762 -3.482202,-22.63431 -36.563124,-34.82202 -31.33982,29.59872 -29.5987195,27.85761 -27.8576185,20.89322 -15.66991,3.4822 -52.233037,-20.89321 -27.85761,-13.92881 -24.37542,-36.56313 -12.18771,-10.4466 -13.92881,-12.18771 z"
         id="path7213" />
      <path
         style="fill:#727689;fill-opacity:1;fill-rule:evenodd;stroke:none;stroke-width:1px;stroke-linecap:butt;stroke-linejoin:miter;stroke-opacity:1"
         d="m -175.85121,317.61753 -67.90295,38.30422 12.18771,38.30423 116.65378,-3.4822 24.375411,-3.48221 0,-24.37541 -19.152111,-34.82202 -26.11652,-6.96441 z"
         id="path7215" />
      <path
         style="fill:#f3ddd0;fill-opacity:1;fill-rule:evenodd;stroke:none;stroke-width:1px;stroke-linecap:butt;stroke-linejoin:miter;stroke-opacity:1"
         d="m -193.26223,437.75351 -22.63431,34.82202 c 0,0 5.2233,59.19744 12.18771,60.93854 6.9644,1.7411 34.82202,19.15211 34.82202,19.15211 l 31.33982,27.85762 31.33982,-19.15211 29.59872,-1.7411 8.705506,-3.48221 -6.964404,-41.78642 15.66991,-10.44661 1.741101,-15.66991 -13.928809,-17.41101 -5.223304,-19.15211 -5.223303,-38.30423 -38.304227,3.4822 -36.56312,6.96441 z"
         id="path7217" />
      <path
         style="fill:#f3ddd0;fill-opacity:1;fill-rule:evenodd;stroke:none;stroke-width:1px;stroke-linecap:butt;stroke-linejoin:miter;stroke-opacity:1"
         d="m 80.090652,491.72764 -15.66991,59.19744 10.446606,20.89321 27.857622,26.11652 19.15211,-27.85762 10.44661,-43.52753 -5.22331,-26.11651 -5.2233,-5.22331 -24.375417,0 z"
         id="path7219" />
      <path
         style="fill:#f3ddd0;fill-opacity:1;fill-rule:evenodd;stroke:none;stroke-width:1px;stroke-linecap:butt;stroke-linejoin:miter;stroke-opacity:1"
         d="m 327.32701,503.91535 -43.52753,20.89321 -29.59872,50.49194 -26.11651,64.42074 13.92881,41.78642 33.08092,-10.4466 52.23303,-34.82202 12.18771,-50.49194 1.7411,-10.4466 6.96441,-19.15212 31.33982,-27.85761 3.4822,-17.41102 -36.56313,6.96441 -10.4466,-5.2233 z"
         id="path7221" />
      <path
         style="fill:#fefbfb;fill-opacity:1;fill-rule:evenodd;stroke:none;stroke-width:1px;stroke-linecap:butt;stroke-linejoin:miter;stroke-opacity:1"
         d="m 257.68297,362.88616 -195.003329,67.90294 22.634314,53.97414 19.152115,10.4466 38.30422,-6.9644 47.00973,-5.2233 95.76056,-36.56313 8.70551,-19.15211 -12.18771,-31.33982 -17.41101,-31.33982 z"
         id="path7223" />
      <path
         style="fill:#5b6792;fill-opacity:1;fill-rule:evenodd;stroke:none;stroke-width:1px;stroke-linecap:butt;stroke-linejoin:miter;stroke-opacity:1"
         d="m 200.22663,749.41061 6.9644,71.38514 5.22331,19.15212 94.01946,33.08092 5.2233,-13.92881 -3.4822,-48.75083 -6.96441,-38.30423 -41.78642,-12.1877 -24.37542,-6.96441 z"
         id="path7225" />
      <path
         style="fill:#000000"
         d="m 383.83368,1030.1932 -1.54838,-42.92989 -15.63359,1.03478 c -23.51483,1.5565 -31.45237,12.14291 -34.09668,45.47541 -2.53054,31.8987 -7.49029,37.0939 -30.406,31.8498 -13.13371,-3.0056 -13.34337,-3.8316 -13.42387,-52.8828 -0.0427,-27.40624 -2.35544,-53.10878 -5.13431,-57.11679 -2.77882,-4.00795 -29.78397,-18.25408 -60.0114,-31.65805 l -54.95898,-24.3708 -1.49029,-67.54952 -1.49029,-67.54952 -15.71571,2.86588 c -8.64364,1.57628 -24.79911,8.05459 -35.90105,14.39633 -35.945861,20.53327 -68.547801,29.34731 -97.133481,26.26036 -31.50216,-3.40188 -40.42304,3.45842 -44.70269,34.37709 -2.82497,20.40911 3.08137,79.21068 9.48453,94.4253 1.99354,4.73677 -0.0972,8.96712 -5.33767,10.8007 -6.31663,2.21017 -10.83398,-1.82891 -16.93438,-15.14136 -6.47132,-14.12198 -7.83915,-31.31736 -6.15659,-77.39877 l 2.16309,-59.24328 -43.36712,-19.96103 C -111.81307,764.89846 -132.68642,755.916 -134.34643,755.916 c -1.65996,0 -4.41149,5.06183 -6.11445,11.2485 -1.70296,6.18666 -12.73827,18.31355 -24.52295,26.94865 -11.78469,8.6351 -24.11229,20.27562 -27.39461,25.86779 -6.63066,11.29662 -8.57149,11.98681 32.19961,-11.45008 26.78695,-15.39819 46.08088,-18.20202 40.92328,-5.94704 -1.78325,4.23721 -3.24231,9.30742 -3.24231,11.2671 0,1.95968 -16.22517,18.88456 -36.05594,37.61084 -19.83077,18.72627 -44.11773,43.36797 -53.9711,54.75927 -17.25284,19.94589 -17.56709,21.0622 -8.50028,30.19721 7.66667,7.72436 8.31076,11.69502 3.4689,21.38442 -7.36876,14.74618 -31.89888,30.11913 -38.45005,24.09656 -6.24772,-5.74365 -15.7369,-40.45661 -21.74686,-79.55386 -2.64993,-17.2385 -7.50375,-38.7629 -10.78639,-47.83201 -3.3102,-9.14543 -6.32298,-53.75357 -6.76468,-100.15989 l -0.79628,-83.67067 22.70189,-44.28105 c 12.48604,-24.35458 22.70189,-46.39385 22.70189,-48.97607 0,-2.58228 5.67371,-11.707 12.6082,-20.27713 14.53012,-17.95737 13.41463,-36.28276 -3.22468,-52.97605 -5.91654,-5.93574 -11.83752,-20.49742 -13.36768,-32.87567 -2.0867,-16.88022 -4.97422,-22.22039 -12.01501,-22.22039 -13.55431,0 -37.41704,-18.72155 -37.41704,-29.35564 0,-6.62014 5.19376,-10.05513 18.69567,-12.36471 18.14239,-3.10332 18.7007,-3.86662 18.86554,-25.79064 0.21794,-28.97901 6.04928,-35.42727 48.62435,-53.76877 39.53082,-17.02999 56.18204,-18.39786 91.2672,-7.4976 30.965749,9.62044 38.526279,17.52711 49.305349,51.56273 7.86425,24.8318 10.37845,27.78598 25.90857,30.44244 16.70966,2.85828 46.4640802,23.32877 46.4640802,31.96645 0,2.35506 -11.9903902,7.91324 -26.6452802,12.35146 -14.6549,4.43826 -28.15851,10.30202 -30.008,13.03065 -1.84948,2.72858 1.7278,11.23909 7.94962,18.91222 13.84692,17.07704 13.84847,17.17508 0.51974,32.62538 -6.51689,7.55415 -10.34704,18.54417 -9.6678,27.74034 1.4878,20.143 -2.94372,25.65895 -23.66915,29.46108 -40.312789,7.39552 -45.090169,12.91322 -25.311429,29.23392 5.87578,4.84851 10.68324,11.30875 10.68324,14.3561 0,3.04741 10.215849,8.28745 22.701889,11.64456 12.48604,3.35707 25.24354,7.14114 28.35006,8.40902 3.10647,1.26783 21.13444,-11.09245 40.06216,-27.46736 18.9276602,-16.37491 40.85683,-33.99105 48.73144,-39.14703 11.69575,-7.65794 14.9316,-14.48604 17.67147,-37.28958 1.84473,-15.35333 5.46662,-32.64719 8.04865,-38.43083 3.11384,-6.9749 1.83501,-18.66919 -3.79795,-34.73019 -4.67087,-13.31791 -7.22796,-27.21911 -5.68241,-30.89149 1.54554,-3.67239 24.14717,-13.02252 50.225881,-20.77806 26.07869,-7.75554 67.97612,-21.30017 93.10535,-30.09921 74.14159,-25.96068 72.41763,-25.93379 84.62917,-1.3199 5.78054,11.65134 11.79942,25.01975 13.37531,29.70758 1.81882,5.41051 8.29126,8.56019 17.72237,8.62428 33.05497,0.22453 141.10383,19.51724 160.9127,28.73163 23.25442,10.81707 45.90049,33.51273 62.04367,62.17949 5.75261,10.21542 15.02352,24.72007 20.60194,32.23252 13.25534,17.85091 13.87769,25.25572 18.70518,222.55873 3.10065,126.72631 2.55164,170.49025 -2.23339,178.03476 -7.06814,11.14427 -32.45616,17.66222 -104.67888,26.87452 -25.37398,3.23657 -48.99298,7.49546 -52.48672,9.46425 -4.12405,2.32399 -6.62072,20.45051 -7.11765,51.67567 -0.72673,45.6629 -1.3627,48.1735 -12.57113,49.627 -11.31746,1.4676 -11.86967,-0.2445 -13.35406,-41.399 z m 45.4284,-81.52252 c 18.23117,-3.81402 54.18017,-10.66857 79.88672,-15.23234 l 46.73918,-8.29773 0,-61.98071 c 0,-34.08944 -1.52568,-75.29026 -3.39044,-91.55738 l -3.39038,-29.57666 -21.98231,0.85696 c -21.24694,0.82832 -22.03953,0.3122 -23.69405,-15.43568 -2.47226,-23.531 2.2515,-32.78211 12.70131,-24.87452 4.50576,3.40963 6.9565,9.13574 5.44605,12.72469 -1.91508,4.55048 2.053,6.52541 13.11096,6.52541 l 15.85724,0 -0.0321,-54.79278 c -0.0374,-61.8011 -6.28036,-104.527 -18.15927,-124.2299 -4.43045,-7.34847 -12.9373,-22.79448 -18.90416,-34.32439 -14.44855,-27.91933 -43.8226,-51.2255 -74.75817,-59.31516 -22.00897,-5.75534 -30.65561,0.85477 -19.72725,15.08102 4.79737,6.24506 8.7225,16.13664 8.7225,21.98126 0,9.94647 2.30752,10.57846 36.05594,9.87482 32.76967,-0.68318 36.05594,0.13589 36.05594,8.98924 0,8.68351 -2.96925,9.56521 -27.35273,8.12209 -32.47861,-1.92218 -72.15617,14.09845 -101.75334,41.08504 l -18.51603,16.88289 3.12543,93.26419 c 1.71899,51.2953 4.04687,94.10429 5.17304,95.13113 1.12618,1.02684 4.87696,-5.95006 8.33512,-15.50417 5.45657,-15.07512 8.00709,-16.97758 19.29741,-14.39384 7.24356,1.65766 16.5024,0.3346 20.88969,-2.98565 6.34894,-4.80438 8.52207,-4.4369 11.1854,1.8914 4.50796,10.71143 11.42397,9.87049 15.51656,-1.88672 4.4258,-12.71446 15.60074,-12.36267 29.1708,0.91837 10.3245,10.10457 10.89563,10.16794 10.97313,1.21762 0.0427,-5.19294 2.44871,-12.72926 5.34163,-16.7474 4.67541,-6.49394 5.84426,-6.49394 10.51968,0 2.89291,4.01814 5.29664,14.07697 5.34162,22.35292 0.10202,18.74322 -20.36488,29.99976 -37.15867,20.43693 -8.42031,-4.79473 -12.23867,-4.17687 -21.52101,3.48263 -6.66709,5.50144 -19.35713,9.39879 -31.01313,9.52474 -10.85076,0.11738 -22.84841,2.0512 -26.66147,4.2976 -3.81301,2.24646 -10.09017,2.97971 -13.94917,1.62952 -5.49658,-1.92321 -7.5914,11.4342 -9.67111,61.66691 -1.46013,35.26697 -1.4956,76.72417 -0.079,92.12703 l 2.57594,28.0052 18.27181,0 c 10.04952,0 33.18824,-3.12056 51.41935,-6.93458 z m -91.28333,-86.82196 c 0.8655,-46.20858 0.89392,-108.67235 0.063,-138.80839 l -1.51013,-54.79278 -14.51452,0.0438 c -18.67083,0.0575 -58.73486,18.05522 -78.90028,35.44425 -8.6562,7.46444 -26.01455,18.29096 -38.57409,24.05895 l -22.83559,10.48725 1.46911,73.03366 1.46905,73.03367 48.07459,21.15717 c 26.44102,11.63648 56.48764,25.23955 66.77026,30.22906 37.56121,18.22607 36.73358,19.81492 38.48857,-73.88737 z m -81.22154,3.15421 c -24.97207,-9.33464 -48.17127,-19.6163 -51.55374,-22.84815 -3.43103,-3.27822 -7.08246,-26.86999 -8.25927,-53.36311 l -2.1094,-47.48707 15.39743,0 c 15.59283,0 94.0684,18.63485 101.08254,24.00313 4.56409,3.4931 14.14397,102.4382 10.76181,111.1524 -3.57904,9.2215 -15.67573,7.09973 -65.31937,-11.4572 z m 43.5793,-34.81227 c 1.59068,-52.6338 3.96385,-49.52308 -47.46452,-62.2162 -23.41874,-5.77998 -35.74869,-6.88962 -38.09484,-3.42832 -1.90787,2.81479 -2.25689,18.96458 -0.7755,35.88849 l 2.69341,30.7707 37.39134,12.98238 c 20.56524,7.14026 39.19415,13.21315 41.39756,13.49525 2.20342,0.282 4.38708,-12.08944 4.85255,-27.4923 z m -22.21281,8.52333 c 0,-2.67876 3.60559,-4.87047 8.01243,-4.87047 4.40684,0 8.01243,2.19171 8.01243,4.87047 0,2.67875 -3.60559,4.87047 -8.01243,4.87047 -4.40684,0 -8.01243,-2.19172 -8.01243,-4.87047 z m -29.37892,-14.61141 c -1.81572,-2.67876 -0.75573,-4.87047 2.35555,-4.87047 3.11128,0 5.65688,2.19171 5.65688,4.87047 0,2.67876 -1.05999,4.87047 -2.35554,4.87047 -1.29556,0 -3.84116,-2.19171 -5.65689,-4.87047 z m 29.37892,-14.89887 c 0,-2.83685 2.40373,-3.80335 5.34162,-2.14778 2.93789,1.65557 5.34162,3.97665 5.34162,5.15793 0,1.18128 -2.40373,2.14778 -5.34162,2.14778 -2.93789,0 -5.34162,-2.32107 -5.34162,-5.15793 z m -33.68507,-2.82711 c -5.68781,-5.18612 1.44096,-11.25916 9.78815,-8.33853 4.29589,1.50307 6.48078,4.69493 4.85532,7.09296 -3.46244,5.10824 -9.81459,5.64852 -14.64347,1.24557 z m 31.01426,-11.49684 c -1.81573,-2.67876 -0.75574,-4.87047 2.35554,-4.87047 3.11128,0 5.65689,2.19171 5.65689,4.87047 0,2.67876 -1.05999,4.87047 -2.35555,4.87047 -1.29556,0 -3.84116,-2.19171 -5.65688,-4.87047 z m -30.38047,-13.06801 c 3.85595,-1.40693 8.4631,-1.23393 10.23812,0.38428 1.77497,1.61846 -1.37995,2.76955 -7.01087,2.55807 -6.22273,-0.23378 -7.48842,-1.38779 -3.22725,-2.94254 z M 83.063249,758.99 c 35.255841,-26.99945 99.180221,-61.51963 113.921811,-61.51963 14.10194,0 15.17769,-10.69784 3.61345,-35.93374 -5.04575,-11.01101 -11.57048,-17.5145 -17.36027,-17.3038 -5.10189,0.18556 -40.52463,14.97976 -78.71722,32.87567 l -69.441071,32.53804 -3.09023,21.11349 c -2.97646,20.33582 -10.85653,29.79441 -24.9532798,29.95188 -8.01612001,0.0896 -8.3794,-4.94957 -1.53951,-21.35307 3.28895,-7.88753 3.28895,-13.36252 0,-15.21593 -2.82561,-1.5923 -5.13751001,-0.57403 -5.13751001,2.26282 0,6.63607 -19.66390019,6.73961 -24.14595019,0.12712 -1.87549,-2.76691 1.46751,-12.56829 7.42886,-21.78084 5.96136,-9.21259 9.0240802,-17.77278 6.8060802,-19.02269 -2.2180002,-1.24986 -13.5149902,-0.0628 -25.1043902,2.6379 -42.48778,9.90103 -45.10892,10.18995 -45.10892,4.97177 0,-2.89676 4.87477,-7.64566 10.83287,-10.55309 24.197,-11.80762 2.32515,-15.05622 -47.449679,-7.04761 -13.35389,2.14855 -17.32955,1.26515 -15.59983,-3.46637 1.98367,-5.42614 20.41899,-13.16926 52.066969,-21.86894 6.92253,-1.90294 6.92253,-2.7035 0,-6.69524 -4.32452,-2.49363 -13.49293,-4.56748 -20.374269,-4.60849 -6.88135,-0.039 -18.62324,-4.45799 -26.09307,-9.8155 -7.46983,-5.35752 -17.92296,-9.74094 -23.22916,-9.74094 -5.30621,0 -10.93398,-1.89778 -12.50623,-4.21729 -5.49717,-8.11016 -30.05741,0.63136 -43.89125,15.62188 -22.84023,24.74983 -26.14793,35.07708 -15.83235,49.43196 4.95265,6.892 11.20453,11.2913 13.89302,9.7763 8.43587,-4.75383 58.70479,12.92539 66.8311,23.50396 5.26513,6.85406 14.39754,10.40994 28.42325,11.06726 14.347059,0.67237 25.041629,4.95863 34.978209,14.01877 14.64165,13.3502 70.1785902,38.65682 94.1176,42.88677 22.88179,4.04318 38.93513,-1.40966 66.66097,-22.64247 z M -204.23657,679.76344 c -13.81883,-12.59996 23.47498,-35.86824 57.4886,-35.86824 28.48682,0 23.10342,10.57579 -11.89707,23.37193 -16.84271,6.15768 -33.15239,12.25303 -36.2437,13.54526 -3.09135,1.29223 -7.29788,0.82019 -9.34783,-1.04895 z m -0.016,73.04769 c 13.54427,-13.0944 16.75511,-19.12984 12.30757,-23.13473 -4.4337,-3.99247 -10.84755,-0.63058 -24.37119,12.77427 -10.09481,10.00603 -18.35408,20.41666 -18.35408,23.13473 0,9.82047 12.45831,4.58842 30.41754,-12.77427 z M 27.440539,657.57811 c 4.88177,-9.92821 13.42788,-17.19958 23.6659,-20.13589 8.81367,-2.52772 19.02952,-6.76167 22.70188,-9.40877 11.93286,-8.6013 7.35878,-26.58351 -10.18599,-40.04432 l -16.86301,-12.93772 -36.27719,32.8239 -36.27719,32.82394 14.41345,15.85776 c 18.3964902,20.23987 29.23213,20.52489 38.82215,1.0211 z m 103.734011,-11.7656 34.77673,-12.6941 0,-58.6084 c 0,-50.10573 -1.35614,-59.54704 -9.34783,-65.07848 -14.70764,-10.17992 -16.1219,-8.42216 -15.38367,19.12029 0.54627,20.38077 -2.2547,29.98149 -13.14369,45.05184 -7.61084,10.53337 -15.21925,28.63651 -16.90758,40.22916 -1.68834,11.59259 -6.879,24.91547 -11.534811,29.60631 -8.35753,8.42036 -10.93849,15.06748 -5.8505,15.06748 1.43804,0 18.264141,-5.71233 37.391351,-12.6941 z m 153.99792,-1.83314 c 16.80036,-10.33831 26.88923,-21.48282 34.98831,-38.64903 6.25941,-13.26701 11.38075,-26.50412 11.38075,-29.41579 0,-2.91171 9.92104,-15.10775 22.04679,-27.1023 23.46344,-23.20964 22.46766,-27.6312 -2.802,-12.44172 -9.5623,5.74784 -18.74717,7.88719 -24.03729,5.5988 -4.70886,-2.03702 -13.72017,-6.11385 -20.0251,-9.0597 -15.3625,-7.17776 -26.95361,4.65509 -40.56133,41.40731 -5.66682,15.30506 -15.1529,34.03733 -21.08023,41.62727 -9.35173,11.97488 -9.91298,15.70186 -4.24381,28.18117 8.18903,18.02634 14.83844,18.00442 44.33391,-0.14611 z m -60.67149,-30.22536 c 5.99026,-5.86263 10.89135,-14.16605 10.89135,-18.45206 0,-4.28602 4.80746,-16.39055 10.68324,-26.89902 5.87579,-10.50848 10.68325,-22.18557 10.68325,-25.94913 0,-3.76351 9.61491,-15.09938 21.36648,-25.1908 11.75157,-10.09142 21.36648,-19.56468 21.36648,-21.05173 0,-6.3114 -50.44803,-9.06458 -69.70441,-3.80413 -32.95182,9.00185 -40.52896,23.79902 -42.03215,82.08387 l -1.28749,49.92232 13.57098,0 c 7.46401,0 18.47207,-4.79669 24.46227,-10.65932 z m -376.99231,-35.31796 c -3.27762,-7.78798 -25.3008,-22.20929 -33.91646,-22.20929 -10.84664,0 -5.25338,8.94563 11.83073,18.92152 20.54029,11.99412 26.09804,12.82142 22.08573,3.28777 z M 116.49171,549.9346 c 7.7022,-28.2255 6.4688,-42.41254 -3.68724,-42.41254 -2.97412,0 -6.91574,5.47928 -8.75915,12.17617 -1.84341,6.6969 -6.742461,12.17618 -10.886781,12.17618 -5.46977,0 -6.56854,-3.51151 -4.00867,-12.81119 2.62556,-9.53842 1.68768,-12.2523 -3.67146,-10.62347 -11.14278,3.38664 -12.27115,45.43501 -1.61712,60.26091 13.60596,18.93375 23.969231,12.97371 32.630421,-18.76606 z m -238.39911,6.27394 c 4.08298,-0.01 -0.12606,-4.21578 -9.35387,-9.34619 -17.22005,-9.57403 -26.1889,-18.83386 -21.96897,-22.68163 4.44007,-4.04843 44.03243,13.32137 52.32,22.9536 17.810139,20.69988 35.502129,-5.41431 20.724689,-30.59069 -4.58263,-7.80751 -3.84169,-11.10145 3.61559,-16.07338 7.83925,-5.22659 8.41882,-8.55999 3.52963,-20.30031 -3.21736,-7.72578 -5.64561,-21.36275 -5.3961,-30.3044 0.51172,-18.33293 -7.44735,-24.95736 -30.116919,-25.06689 -19.41428,-0.094 -29.57938,11.82851 -29.79791,34.94888 -0.21473,22.74051 -5.94057,25.91221 -23.73634,13.14876 -16.78461,-12.03825 -33.37616,-9.28969 -24.82866,4.11306 10.10816,15.84992 20.14486,25.64224 26.28211,25.64224 3.3485,0 6.08817,2.44722 6.08817,5.43827 0,3.28766 -5.72782,4.43987 -14.48424,2.91361 -9.7101,-1.69249 -16.69667,0.12712 -21.19662,5.52034 -11.00544,13.1903 -8.14752,19.51353 13.33632,29.50706 11.21361,5.21617 23.70676,13.12961 27.76249,17.58541 6.71741,7.38007 7.92712,7.41178 13.58556,0.35603 3.41634,-4.26001 9.55215,-7.75369 13.63507,-7.76372 z m 13.6542,-104.3408 c -1.60863,-3.82229 0.79804,-9.76675 5.34814,-13.20993 6.879999,-5.20624 9.495899,-4.73536 15.536259,2.79667 3.99479,4.98132 5.99656,10.92583 4.44834,13.20993 -4.54513,6.70552 -22.151699,4.76181 -25.332739,-2.79667 z m 228.52048,23.81854 c 5.72167,-3.94551 14.76041,-5.91265 20.08609,-4.37144 5.32567,1.54122 38.50303,-5.45565 73.7275,-15.54858 60.68589,-17.3884 64.04443,-19.02854 64.04443,-31.27538 0,-18.32621 -10.06703,-42.34328 -19.06895,-45.49291 -8.62404,-3.01745 -10.51818,4.56509 -2.29753,9.19759 9.2574,5.21676 5.79635,21.12912 -5.29382,24.33851 -12.59041,3.64355 -21.41429,-0.36431 -21.41429,-9.7271 0,-3.70195 -2.42958,-8.09999 -5.39915,-9.77333 -7.26247,-4.09256 -144.166231,37.38256 -144.166231,43.6753 0,10.07608 18.87336,46.41971 24.037291,46.28763 2.93789,-0.075 10.02299,-3.36482 15.74466,-7.31029 z m 5.2338,-27.18233 c -3.14187,-4.63522 31.46649,-20.43128 57.81045,-26.38596 11.11933,-2.51341 14.68946,-1.54311 14.68946,3.99222 0,8.29383 -11.00022,13.22528 -29.50055,13.22528 -6.93106,0 -13.90819,1.92714 -15.50474,4.28255 -4.4226,6.52478 -24.0229,10.00779 -27.49462,4.88591 z m -225.50244,-71.94609 c 7.236079,-5.87247 -9.37225,-27.36517 -27.91082,-36.11911 -17.71987,-8.36737 -69.41041,-9.83728 -77.77373,-2.21163 -1.69271,1.5434 -1.42937,12.82867 0.58528,25.07834 l 3.66301,22.27207 48.81852,-2.96821 c 26.85019,-1.63253 50.52815,-4.35566 52.61774,-6.05146 z m -52.89759,-6.35606 c -12.82299,-5.65003 -19.51086,-16.75188 -14.52376,-24.10941 1.92256,-2.83641 7.74562,-2.00322 14.70677,2.10429 6.3382,3.73998 18.13426,8.28423 26.21347,10.09838 8.0792,1.8142 14.68945,6.54431 14.68945,10.5114 0,8.47959 -23.21831,9.26812 -41.08593,1.39534 z m -4.67835,540.03367 c -1.48283,-3.52335 -0.80642,-10.92831 1.50303,-16.45547 5.59577,-13.39194 85.743369,-98.90024 92.699979,-98.90024 11.47423,0 -2.65302,37.02161 -23.18194,60.75024 -49.035169,56.6779 -64.987119,68.94277 -71.021069,54.60547 z"
         id="path7207" />
    </g>
  </g>
</svg>
